<?xml version="1.0" encoding="utf-8"?>
<!-- Generator: Adobe Illustrator 19.1.0, SVG Export Plug-In . SVG Version: 6.00 Build 0)  -->
<!DOCTYPE svg PUBLIC "-//W3C//DTD SVG 1.1//EN" "http://www.w3.org/Graphics/SVG/1.1/DTD/svg11.dtd">
<svg version="1.1" xmlns="http://www.w3.org/2000/svg" xmlns:xlink="http://www.w3.org/1999/xlink" x="0px" y="0px"
	 viewBox="0 0 46.3 45.6" style="enable-background:new 0 0 46.3 45.6;" xml:space="preserve">
<style type="text/css">
	.st0{fill:#A4C7E2;}
	.st1{opacity:0.85;fill:#FFFFFF;}
	.st2{clip-path:url(#SVGID_2_);fill:#A4C7E2;}
	.st3{clip-path:url(#SVGID_2_);fill:#73A950;}
	.st4{clip-path:url(#SVGID_2_);fill:#704C1C;}
	.st5{fill:#704C1C;}
	.st6{fill:#565759;}
	.st7{opacity:0.75;}
	.st8{fill:#FFFFFF;}
	.st9{fill:#A1A3A6;}
	.st10{fill-rule:evenodd;clip-rule:evenodd;fill:#A1A3A6;}
	.st11{opacity:0.45;fill:none;stroke:#FFFFFF;stroke-miterlimit:10;}
	.st12{fill:#567F3C;}
	.st13{fill:#101B40;}
	.st14{fill:#375D3B;}
	.st15{fill:#375D3B;stroke:#FFFFFF;stroke-width:0.75;stroke-miterlimit:10;}
	.st16{opacity:0.35;fill:#375D3B;}
	.st17{fill:none;stroke:#77787B;stroke-miterlimit:10;}
	.st18{fill:#35478C;}
	.st19{fill:#737144;}
	.st20{fill:#324D7B;}
	.st21{fill:#F3F5E3;}
	.st22{fill:#999999;}
	.st23{fill:#45B29D;}
	.st24{fill:#666666;}
	.st25{fill:none;stroke:#808080;stroke-width:2;stroke-miterlimit:10;}
	.st26{fill:#AAAAAB;stroke:#FFFFFF;stroke-miterlimit:10;}
	.st27{fill:#7FB2F0;stroke:#FFFFFF;stroke-miterlimit:10;}
	.st28{fill:#BBCCB1;}
	.st29{fill:#FFFFFF;stroke:#000000;stroke-miterlimit:10;}
	.st30{fill:none;stroke:#B5B5B5;stroke-miterlimit:10;stroke-dasharray:2,2;}
	.st31{fill:#E9E9EA;}
	.st32{fill:none;stroke:#808080;stroke-linecap:round;stroke-linejoin:round;stroke-miterlimit:10;}
	.st33{fill:none;stroke:#6D6E71;stroke-miterlimit:10;}
	.st34{fill:#FFFFFF;stroke:#FFFFFF;stroke-width:0.25;stroke-linecap:round;stroke-linejoin:round;stroke-miterlimit:10;}
	.st35{clip-path:url(#SVGID_4_);fill:#A4C7E2;}
	.st36{clip-path:url(#SVGID_4_);fill:#73A950;}
	.st37{clip-path:url(#SVGID_4_);fill:#704C1C;}
	.st38{fill:#0091AF;stroke:#FFFFFF;stroke-linecap:round;stroke-linejoin:round;stroke-miterlimit:10;}
	.st39{display:none;}
	.st40{display:inline;}
</style>
<g id="WHITE_BOARD">
</g>
<g id="TITLE">
</g>
<g id="FINAL">
</g>
<g id="THIRD_SECTION">
	<g id="Regal_Vector_Pack_04">
	</g>
</g>
<g id="SECOND_SECTION">
</g>
<g id="FIRST_SECTION">
	<g id="MAIN_MAP">
		<g>
			<g>
				<path class="st23" d="M23.4,44.5c-11.9,0-21.6-9.7-21.6-21.6S11.5,1.3,23.4,1.3S45.1,11,45.1,22.9S35.4,44.5,23.4,44.5z"/>
				<path class="st22" d="M23.4,1.8c11.7,0,21.1,9.5,21.1,21.1c0,11.7-9.5,21.1-21.1,21.1C11.8,44,2.3,34.6,2.3,22.9
					C2.3,11.2,11.8,1.8,23.4,1.8 M23.4,0.8c-12.2,0-22.1,9.9-22.1,22.1C1.3,35.1,11.2,45,23.4,45s22.1-9.9,22.1-22.1
					C45.6,10.7,35.6,0.8,23.4,0.8L23.4,0.8z"/>
				<path class="st8" d="M23.4,3.8c10.5,0,19.1,8.6,19.1,19.1C42.6,33.4,34,42,23.4,42C12.9,42,4.3,33.4,4.3,22.9
					C4.3,12.3,12.9,3.8,23.4,3.8 M23.4,1.8c-11.7,0-21.1,9.5-21.1,21.1C2.3,34.6,11.8,44,23.4,44c11.7,0,21.1-9.5,21.1-21.1
					C44.6,11.2,35.1,1.8,23.4,1.8L23.4,1.8z"/>
			</g>
			<g>
				<g>
					<g id="Icons_1_">
						<g>
							<path class="st8" d="M23.4,10.2c-4.5,0-8.2,3.7-8.2,8.2c0,2.9,1.5,5.5,3.9,7v1.1c0,0.9,0.8,1.7,1.7,1.7H26
								c0.9,0,1.7-0.8,1.7-1.7v-1.1c2.4-1.5,3.9-4.1,3.9-7C31.6,13.9,27.9,10.2,23.4,10.2z M26.4,24.2c-0.3,0.1-0.5,0.4-0.5,0.8v1.6
								h-1.7v-5l2.4-2.4c0.3-0.3,0.3-0.9,0-1.2c-0.3-0.3-0.9-0.3-1.2,0L23.4,20l-2.1-2.1c-0.3-0.3-0.9-0.3-1.2,0
								c-0.3,0.3-0.3,0.9,0,1.2l2.4,2.4v5h-1.7v-1.6c0-0.3-0.2-0.6-0.5-0.8c-2.2-1.1-3.5-3.3-3.5-5.7c0-3.6,2.9-6.5,6.5-6.5
								c3.6,0,6.5,2.9,6.5,6.5C29.9,20.8,28.6,23,26.4,24.2z"/>
							<path class="st8" d="M26.4,31.6h-5.9c-0.5,0-0.9,0.4-0.9,0.8c0,0.5,0.4,0.8,0.9,0.8h1.2v0.4c0,1,0.8,1.8,1.8,1.8
								c1,0,1.8-0.8,1.8-1.8v-0.4h1.2c0.5,0,0.8-0.4,0.8-0.8C27.2,32,26.9,31.6,26.4,31.6z"/>
							<path class="st8" d="M26.4,29.1h-5.9c-0.5,0-0.9,0.4-0.9,0.8c0,0.5,0.4,0.8,0.9,0.8h5.9c0.5,0,0.8-0.4,0.8-0.8
								C27.2,29.5,26.9,29.1,26.4,29.1z"/>
						</g>
					</g>
				</g>
			</g>
		</g>
	</g>
</g>
<g id="ai2html-settings">
</g>
</svg>
