<?xml version="1.0" encoding="utf-8"?>
<!-- Generator: Adobe Illustrator 19.1.0, SVG Export Plug-In . SVG Version: 6.00 Build 0)  -->
<!DOCTYPE svg PUBLIC "-//W3C//DTD SVG 1.1//EN" "http://www.w3.org/Graphics/SVG/1.1/DTD/svg11.dtd">
<svg version="1.1" id="Layer_1" xmlns="http://www.w3.org/2000/svg" xmlns:xlink="http://www.w3.org/1999/xlink" x="0px" y="0px"
	 viewBox="0 0 787.5 214.5" enable-background="new 0 0 787.5 214.5" xml:space="preserve">
<rect x="11.8" y="11.4" fill="#8FC3EA" width="290" height="57.1"/>
<rect x="11.8" y="78.4" fill="#66B360" width="290" height="57.1"/>
<rect x="11.8" y="145.3" fill="#795300" width="290" height="57.1"/>
<path fill="#795300" d="M399.2,159.6h18.1c37.7-0.8,52.7-15.5,52.7-53.8c0-34.8-18.7-51.6-52.7-51.6h-18.1V159.6z M349.5,11.5h76.6
	c58.6,0,93.6,35.6,93.6,94.7c0,62.6-35.6,96.3-93.6,96.3h-76.6V11.5z"/>
<path fill="#795300" d="M590.8,131.3h43.3L613,64.4h-0.5L590.8,131.3z M587.6,11.5h50.5l71.4,191h-51.9l-11.8-34.2h-66.6l-12,34.2
	h-51.1L587.6,11.5z"/>
<rect x="726.2" y="11.5" fill="#795300" width="49.7" height="191"/>
</svg>
