<?xml version="1.0" encoding="utf-8"?>
<!-- Generator: Adobe Illustrator 19.1.0, SVG Export Plug-In . SVG Version: 6.00 Build 0)  -->
<!DOCTYPE svg PUBLIC "-//W3C//DTD SVG 1.1//EN" "http://www.w3.org/Graphics/SVG/1.1/DTD/svg11.dtd">
<svg version="1.1" id="Layer_1" xmlns="http://www.w3.org/2000/svg" xmlns:xlink="http://www.w3.org/1999/xlink" x="0px" y="0px"
	 viewBox="0 0 804 217.5" style="enable-background:new 0 0 804 217.5;" xml:space="preserve">
<style type="text/css">
	.st0{fill:#8FC3EA;}
	.st1{fill:#66B360;}
	.st2{fill:#795300;}
	.st3{fill:#455560;}
</style>
<rect x="10.3" y="15.9" class="st0" width="290" height="57.1"/>
<rect x="10.3" y="82.9" class="st1" width="290" height="57.1"/>
<rect x="10.3" y="149.8" class="st2" width="290" height="57.1"/>
<path class="st2" d="M397.7,164.1h18.1c37.7-0.8,52.7-15.5,52.7-53.8c0-34.8-18.7-51.6-52.7-51.6h-18.1V164.1z M348,16h76.6
	c58.6,0,93.6,35.6,93.6,94.7c0,62.6-35.6,96.3-93.6,96.3H348V16z"/>
<path class="st2" d="M589.3,135.8h43.3l-21.1-66.9H611L589.3,135.8z M586.1,16h50.5l71.4,191h-51.9l-11.8-34.2h-66.6l-12,34.2h-51.1
	L586.1,16z"/>
<rect x="724.7" y="16" class="st2" width="49.7" height="191"/>
</svg>
